<?xml version="1.0" encoding="utf-8" standalone="no"?>
<!DOCTYPE svg PUBLIC "-//W3C//DTD SVG 1.1//EN"
  "http://www.w3.org/Graphics/SVG/1.1/DTD/svg11.dtd">
<svg xmlns:xlink="http://www.w3.org/1999/xlink" width="666.040822pt" height="521.093255pt" viewBox="0 0 666.040822 521.093255" xmlns="http://www.w3.org/2000/svg" version="1.1">
 <metadata>
  <rdf:RDF xmlns:dc="http://purl.org/dc/elements/1.1/" xmlns:cc="http://creativecommons.org/ns#" xmlns:rdf="http://www.w3.org/1999/02/22-rdf-syntax-ns#">
   <cc:Work>
    <dc:type rdf:resource="http://purl.org/dc/dcmitype/StillImage"/>
    <dc:date>2025-10-09T20:30:06.719782</dc:date>
    <dc:format>image/svg+xml</dc:format>
    <dc:creator>
     <cc:Agent>
      <dc:title>Matplotlib v3.10.7, https://matplotlib.org/</dc:title>
     </cc:Agent>
    </dc:creator>
   </cc:Work>
  </rdf:RDF>
 </metadata>
 <defs>
  <style type="text/css">*{stroke-linejoin: round; stroke-linecap: butt}</style>
 </defs>
 <g id="figure_1">
  <g id="patch_1">
   <path d="M 0 521.093255 
L 666.040822 521.093255 
L 666.040822 0 
L 0 0 
z
" style="fill: #ffffff"/>
  </g>
  <g id="axes_1">
   <g id="patch_2">
    <path d="M 45.040822 220.416455 
L 311.910387 220.416455 
L 311.910387 15.529498 
L 45.040822 15.529498 
z
" style="fill: #ffffff"/>
   </g>
   <g id="matplotlib.axis_1">
    <g id="xtick_1">
     <g id="line2d_1">
      <defs>
       <path id="m2273ec937f" d="M 0 0 
L 0 3.5 
" style="stroke: #000000; stroke-width: 0.8"/>
      </defs>
      <g>
       <use xlink:href="#m2273ec937f" x="57.171257" y="220.416455" style="stroke: #000000; stroke-width: 0.8"/>
      </g>
     </g>
     <g id="text_1">
      <!-- −1.5 -->
      <g transform="translate(47.057465 233.745953) scale(0.0833 -0.0833)">
       <defs>
        <path id="DejaVuSans-2212" d="M 678 2272 
L 4684 2272 
L 4684 1741 
L 678 1741 
L 678 2272 
z
" transform="scale(0.015625)"/>
        <path id="DejaVuSans-31" d="M 794 531 
L 1825 531 
L 1825 4091 
L 703 3866 
L 703 4441 
L 1819 4666 
L 2450 4666 
L 2450 531 
L 3481 531 
L 3481 0 
L 794 0 
L 794 531 
z
" transform="scale(0.015625)"/>
        <path id="DejaVuSans-2e" d="M 684 794 
L 1344 794 
L 1344 0 
L 684 0 
L 684 794 
z
" transform="scale(0.015625)"/>
        <path id="DejaVuSans-35" d="M 691 4666 
L 3169 4666 
L 3169 4134 
L 1269 4134 
L 1269 2991 
Q 1406 3038 1543 3061 
Q 1681 3084 1819 3084 
Q 2600 3084 3056 2656 
Q 3513 2228 3513 1497 
Q 3513 744 3044 326 
Q 2575 -91 1722 -91 
Q 1428 -91 1123 -41 
Q 819 9 494 109 
L 494 744 
Q 775 591 1075 516 
Q 1375 441 1709 441 
Q 2250 441 2565 725 
Q 2881 1009 2881 1497 
Q 2881 1984 2565 2268 
Q 2250 2553 1709 2553 
Q 1456 2553 1204 2497 
Q 953 2441 691 2322 
L 691 4666 
z
" transform="scale(0.015625)"/>
       </defs>
       <use xlink:href="#DejaVuSans-2212"/>
       <use xlink:href="#DejaVuSans-31" transform="translate(83.789062 0)"/>
       <use xlink:href="#DejaVuSans-2e" transform="translate(147.412109 0)"/>
       <use xlink:href="#DejaVuSans-35" transform="translate(179.199219 0)"/>
      </g>
     </g>
    </g>
    <g id="xtick_2">
     <g id="line2d_2">
      <g>
       <use xlink:href="#m2273ec937f" x="97.877414" y="220.416455" style="stroke: #000000; stroke-width: 0.8"/>
      </g>
     </g>
     <g id="text_2">
      <!-- −1.0 -->
      <g transform="translate(87.763622 233.745953) scale(0.0833 -0.0833)">
       <defs>
        <path id="DejaVuSans-30" d="M 2034 4250 
Q 1547 4250 1301 3770 
Q 1056 3291 1056 2328 
Q 1056 1369 1301 889 
Q 1547 409 2034 409 
Q 2525 409 2770 889 
Q 3016 1369 3016 2328 
Q 3016 3291 2770 3770 
Q 2525 4250 2034 4250 
z
M 2034 4750 
Q 2819 4750 3233 4129 
Q 3647 3509 3647 2328 
Q 3647 1150 3233 529 
Q 2819 -91 2034 -91 
Q 1250 -91 836 529 
Q 422 1150 422 2328 
Q 422 3509 836 4129 
Q 1250 4750 2034 4750 
z
" transform="scale(0.015625)"/>
       </defs>
       <use xlink:href="#DejaVuSans-2212"/>
       <use xlink:href="#DejaVuSans-31" transform="translate(83.789062 0)"/>
       <use xlink:href="#DejaVuSans-2e" transform="translate(147.412109 0)"/>
       <use xlink:href="#DejaVuSans-30" transform="translate(179.199219 0)"/>
      </g>
     </g>
    </g>
    <g id="xtick_3">
     <g id="line2d_3">
      <g>
       <use xlink:href="#m2273ec937f" x="138.583571" y="220.416455" style="stroke: #000000; stroke-width: 0.8"/>
      </g>
     </g>
     <g id="text_3">
      <!-- −0.5 -->
      <g transform="translate(128.469779 233.745953) scale(0.0833 -0.0833)">
       <use xlink:href="#DejaVuSans-2212"/>
       <use xlink:href="#DejaVuSans-30" transform="translate(83.789062 0)"/>
       <use xlink:href="#DejaVuSans-2e" transform="translate(147.412109 0)"/>
       <use xlink:href="#DejaVuSans-35" transform="translate(179.199219 0)"/>
      </g>
     </g>
    </g>
    <g id="xtick_4">
     <g id="line2d_4">
      <g>
       <use xlink:href="#m2273ec937f" x="179.289728" y="220.416455" style="stroke: #000000; stroke-width: 0.8"/>
      </g>
     </g>
     <g id="text_4">
      <!-- 0.0 -->
      <g transform="translate(172.666076 233.745953) scale(0.0833 -0.0833)">
       <use xlink:href="#DejaVuSans-30"/>
       <use xlink:href="#DejaVuSans-2e" transform="translate(63.623047 0)"/>
       <use xlink:href="#DejaVuSans-30" transform="translate(95.410156 0)"/>
      </g>
     </g>
    </g>
    <g id="xtick_5">
     <g id="line2d_5">
      <g>
       <use xlink:href="#m2273ec937f" x="219.995885" y="220.416455" style="stroke: #000000; stroke-width: 0.8"/>
      </g>
     </g>
     <g id="text_5">
      <!-- 0.5 -->
      <g transform="translate(213.372233 233.745953) scale(0.0833 -0.0833)">
       <use xlink:href="#DejaVuSans-30"/>
       <use xlink:href="#DejaVuSans-2e" transform="translate(63.623047 0)"/>
       <use xlink:href="#DejaVuSans-35" transform="translate(95.410156 0)"/>
      </g>
     </g>
    </g>
    <g id="xtick_6">
     <g id="line2d_6">
      <g>
       <use xlink:href="#m2273ec937f" x="260.702042" y="220.416455" style="stroke: #000000; stroke-width: 0.8"/>
      </g>
     </g>
     <g id="text_6">
      <!-- 1.0 -->
      <g transform="translate(254.07839 233.745953) scale(0.0833 -0.0833)">
       <use xlink:href="#DejaVuSans-31"/>
       <use xlink:href="#DejaVuSans-2e" transform="translate(63.623047 0)"/>
       <use xlink:href="#DejaVuSans-30" transform="translate(95.410156 0)"/>
      </g>
     </g>
    </g>
    <g id="xtick_7">
     <g id="line2d_7">
      <g>
       <use xlink:href="#m2273ec937f" x="301.408199" y="220.416455" style="stroke: #000000; stroke-width: 0.8"/>
      </g>
     </g>
     <g id="text_7">
      <!-- 1.5 -->
      <g transform="translate(294.784547 233.745953) scale(0.0833 -0.0833)">
       <use xlink:href="#DejaVuSans-31"/>
       <use xlink:href="#DejaVuSans-2e" transform="translate(63.623047 0)"/>
       <use xlink:href="#DejaVuSans-35" transform="translate(95.410156 0)"/>
      </g>
     </g>
    </g>
    <g id="text_8">
     <!-- time -->
     <g transform="translate(169.065958 245.807832) scale(0.0833 -0.0833)">
      <defs>
       <path id="DejaVuSans-74" d="M 1172 4494 
L 1172 3500 
L 2356 3500 
L 2356 3053 
L 1172 3053 
L 1172 1153 
Q 1172 725 1289 603 
Q 1406 481 1766 481 
L 2356 481 
L 2356 0 
L 1766 0 
Q 1100 0 847 248 
Q 594 497 594 1153 
L 594 3053 
L 172 3053 
L 172 3500 
L 594 3500 
L 594 4494 
L 1172 4494 
z
" transform="scale(0.015625)"/>
       <path id="DejaVuSans-69" d="M 603 3500 
L 1178 3500 
L 1178 0 
L 603 0 
L 603 3500 
z
M 603 4863 
L 1178 4863 
L 1178 4134 
L 603 4134 
L 603 4863 
z
" transform="scale(0.015625)"/>
       <path id="DejaVuSans-6d" d="M 3328 2828 
Q 3544 3216 3844 3400 
Q 4144 3584 4550 3584 
Q 5097 3584 5394 3201 
Q 5691 2819 5691 2113 
L 5691 0 
L 5113 0 
L 5113 2094 
Q 5113 2597 4934 2840 
Q 4756 3084 4391 3084 
Q 3944 3084 3684 2787 
Q 3425 2491 3425 1978 
L 3425 0 
L 2847 0 
L 2847 2094 
Q 2847 2600 2669 2842 
Q 2491 3084 2119 3084 
Q 1678 3084 1418 2786 
Q 1159 2488 1159 1978 
L 1159 0 
L 581 0 
L 581 3500 
L 1159 3500 
L 1159 2956 
Q 1356 3278 1631 3431 
Q 1906 3584 2284 3584 
Q 2666 3584 2933 3390 
Q 3200 3197 3328 2828 
z
" transform="scale(0.015625)"/>
       <path id="DejaVuSans-65" d="M 3597 1894 
L 3597 1613 
L 953 1613 
Q 991 1019 1311 708 
Q 1631 397 2203 397 
Q 2534 397 2845 478 
Q 3156 559 3463 722 
L 3463 178 
Q 3153 47 2828 -22 
Q 2503 -91 2169 -91 
Q 1331 -91 842 396 
Q 353 884 353 1716 
Q 353 2575 817 3079 
Q 1281 3584 2069 3584 
Q 2775 3584 3186 3129 
Q 3597 2675 3597 1894 
z
M 3022 2063 
Q 3016 2534 2758 2815 
Q 2500 3097 2075 3097 
Q 1594 3097 1305 2825 
Q 1016 2553 972 2059 
L 3022 2063 
z
" transform="scale(0.015625)"/>
      </defs>
      <use xlink:href="#DejaVuSans-74"/>
      <use xlink:href="#DejaVuSans-69" transform="translate(39.208984 0)"/>
      <use xlink:href="#DejaVuSans-6d" transform="translate(66.992188 0)"/>
      <use xlink:href="#DejaVuSans-65" transform="translate(164.404297 0)"/>
     </g>
    </g>
   </g>
   <g id="matplotlib.axis_2">
    <g id="ytick_1">
     <g id="line2d_8">
      <defs>
       <path id="m6f16a4d5b7" d="M 0 0 
L -3.5 0 
" style="stroke: #000000; stroke-width: 0.8"/>
      </defs>
      <g>
       <use xlink:href="#m6f16a4d5b7" x="45.040822" y="197.072764" style="stroke: #000000; stroke-width: 0.8"/>
      </g>
     </g>
     <g id="text_9">
      <!-- 0.55 -->
      <g transform="translate(19.493556 200.237513) scale(0.0833 -0.0833)">
       <use xlink:href="#DejaVuSans-30"/>
       <use xlink:href="#DejaVuSans-2e" transform="translate(63.623047 0)"/>
       <use xlink:href="#DejaVuSans-35" transform="translate(95.410156 0)"/>
       <use xlink:href="#DejaVuSans-35" transform="translate(159.033203 0)"/>
      </g>
     </g>
    </g>
    <g id="ytick_2">
     <g id="line2d_9">
      <g>
       <use xlink:href="#m6f16a4d5b7" x="45.040822" y="171.262584" style="stroke: #000000; stroke-width: 0.8"/>
      </g>
     </g>
     <g id="text_10">
      <!-- 0.60 -->
      <g transform="translate(19.493556 174.427333) scale(0.0833 -0.0833)">
       <defs>
        <path id="DejaVuSans-36" d="M 2113 2584 
Q 1688 2584 1439 2293 
Q 1191 2003 1191 1497 
Q 1191 994 1439 701 
Q 1688 409 2113 409 
Q 2538 409 2786 701 
Q 3034 994 3034 1497 
Q 3034 2003 2786 2293 
Q 2538 2584 2113 2584 
z
M 3366 4563 
L 3366 3988 
Q 3128 4100 2886 4159 
Q 2644 4219 2406 4219 
Q 1781 4219 1451 3797 
Q 1122 3375 1075 2522 
Q 1259 2794 1537 2939 
Q 1816 3084 2150 3084 
Q 2853 3084 3261 2657 
Q 3669 2231 3669 1497 
Q 3669 778 3244 343 
Q 2819 -91 2113 -91 
Q 1303 -91 875 529 
Q 447 1150 447 2328 
Q 447 3434 972 4092 
Q 1497 4750 2381 4750 
Q 2619 4750 2861 4703 
Q 3103 4656 3366 4563 
z
" transform="scale(0.015625)"/>
       </defs>
       <use xlink:href="#DejaVuSans-30"/>
       <use xlink:href="#DejaVuSans-2e" transform="translate(63.623047 0)"/>
       <use xlink:href="#DejaVuSans-36" transform="translate(95.410156 0)"/>
       <use xlink:href="#DejaVuSans-30" transform="translate(159.033203 0)"/>
      </g>
     </g>
    </g>
    <g id="ytick_3">
     <g id="line2d_10">
      <g>
       <use xlink:href="#m6f16a4d5b7" x="45.040822" y="145.452404" style="stroke: #000000; stroke-width: 0.8"/>
      </g>
     </g>
     <g id="text_11">
      <!-- 0.65 -->
      <g transform="translate(19.493556 148.617153) scale(0.0833 -0.0833)">
       <use xlink:href="#DejaVuSans-30"/>
       <use xlink:href="#DejaVuSans-2e" transform="translate(63.623047 0)"/>
       <use xlink:href="#DejaVuSans-36" transform="translate(95.410156 0)"/>
       <use xlink:href="#DejaVuSans-35" transform="translate(159.033203 0)"/>
      </g>
     </g>
    </g>
    <g id="ytick_4">
     <g id="line2d_11">
      <g>
       <use xlink:href="#m6f16a4d5b7" x="45.040822" y="119.642224" style="stroke: #000000; stroke-width: 0.8"/>
      </g>
     </g>
     <g id="text_12">
      <!-- 0.70 -->
      <g transform="translate(19.493556 122.806973) scale(0.0833 -0.0833)">
       <defs>
        <path id="DejaVuSans-37" d="M 525 4666 
L 3525 4666 
L 3525 4397 
L 1831 0 
L 1172 0 
L 2766 4134 
L 525 4134 
L 525 4666 
z
" transform="scale(0.015625)"/>
       </defs>
       <use xlink:href="#DejaVuSans-30"/>
       <use xlink:href="#DejaVuSans-2e" transform="translate(63.623047 0)"/>
       <use xlink:href="#DejaVuSans-37" transform="translate(95.410156 0)"/>
       <use xlink:href="#DejaVuSans-30" transform="translate(159.033203 0)"/>
      </g>
     </g>
    </g>
    <g id="ytick_5">
     <g id="line2d_12">
      <g>
       <use xlink:href="#m6f16a4d5b7" x="45.040822" y="93.832044" style="stroke: #000000; stroke-width: 0.8"/>
      </g>
     </g>
     <g id="text_13">
      <!-- 0.75 -->
      <g transform="translate(19.493556 96.996793) scale(0.0833 -0.0833)">
       <use xlink:href="#DejaVuSans-30"/>
       <use xlink:href="#DejaVuSans-2e" transform="translate(63.623047 0)"/>
       <use xlink:href="#DejaVuSans-37" transform="translate(95.410156 0)"/>
       <use xlink:href="#DejaVuSans-35" transform="translate(159.033203 0)"/>
      </g>
     </g>
    </g>
    <g id="ytick_6">
     <g id="line2d_13">
      <g>
       <use xlink:href="#m6f16a4d5b7" x="45.040822" y="68.021864" style="stroke: #000000; stroke-width: 0.8"/>
      </g>
     </g>
     <g id="text_14">
      <!-- 0.80 -->
      <g transform="translate(19.493556 71.186613) scale(0.0833 -0.0833)">
       <defs>
        <path id="DejaVuSans-38" d="M 2034 2216 
Q 1584 2216 1326 1975 
Q 1069 1734 1069 1313 
Q 1069 891 1326 650 
Q 1584 409 2034 409 
Q 2484 409 2743 651 
Q 3003 894 3003 1313 
Q 3003 1734 2745 1975 
Q 2488 2216 2034 2216 
z
M 1403 2484 
Q 997 2584 770 2862 
Q 544 3141 544 3541 
Q 544 4100 942 4425 
Q 1341 4750 2034 4750 
Q 2731 4750 3128 4425 
Q 3525 4100 3525 3541 
Q 3525 3141 3298 2862 
Q 3072 2584 2669 2484 
Q 3125 2378 3379 2068 
Q 3634 1759 3634 1313 
Q 3634 634 3220 271 
Q 2806 -91 2034 -91 
Q 1263 -91 848 271 
Q 434 634 434 1313 
Q 434 1759 690 2068 
Q 947 2378 1403 2484 
z
M 1172 3481 
Q 1172 3119 1398 2916 
Q 1625 2713 2034 2713 
Q 2441 2713 2670 2916 
Q 2900 3119 2900 3481 
Q 2900 3844 2670 4047 
Q 2441 4250 2034 4250 
Q 1625 4250 1398 4047 
Q 1172 3844 1172 3481 
z
" transform="scale(0.015625)"/>
       </defs>
       <use xlink:href="#DejaVuSans-30"/>
       <use xlink:href="#DejaVuSans-2e" transform="translate(63.623047 0)"/>
       <use xlink:href="#DejaVuSans-38" transform="translate(95.410156 0)"/>
       <use xlink:href="#DejaVuSans-30" transform="translate(159.033203 0)"/>
      </g>
     </g>
    </g>
    <g id="ytick_7">
     <g id="line2d_14">
      <g>
       <use xlink:href="#m6f16a4d5b7" x="45.040822" y="42.211684" style="stroke: #000000; stroke-width: 0.8"/>
      </g>
     </g>
     <g id="text_15">
      <!-- 0.85 -->
      <g transform="translate(19.493556 45.376433) scale(0.0833 -0.0833)">
       <use xlink:href="#DejaVuSans-30"/>
       <use xlink:href="#DejaVuSans-2e" transform="translate(63.623047 0)"/>
       <use xlink:href="#DejaVuSans-38" transform="translate(95.410156 0)"/>
       <use xlink:href="#DejaVuSans-35" transform="translate(159.033203 0)"/>
      </g>
     </g>
    </g>
    <g id="ytick_8">
     <g id="line2d_15">
      <g>
       <use xlink:href="#m6f16a4d5b7" x="45.040822" y="16.401504" style="stroke: #000000; stroke-width: 0.8"/>
      </g>
     </g>
     <g id="text_16">
      <!-- 0.90 -->
      <g transform="translate(19.493556 19.566253) scale(0.0833 -0.0833)">
       <defs>
        <path id="DejaVuSans-39" d="M 703 97 
L 703 672 
Q 941 559 1184 500 
Q 1428 441 1663 441 
Q 2288 441 2617 861 
Q 2947 1281 2994 2138 
Q 2813 1869 2534 1725 
Q 2256 1581 1919 1581 
Q 1219 1581 811 2004 
Q 403 2428 403 3163 
Q 403 3881 828 4315 
Q 1253 4750 1959 4750 
Q 2769 4750 3195 4129 
Q 3622 3509 3622 2328 
Q 3622 1225 3098 567 
Q 2575 -91 1691 -91 
Q 1453 -91 1209 -44 
Q 966 3 703 97 
z
M 1959 2075 
Q 2384 2075 2632 2365 
Q 2881 2656 2881 3163 
Q 2881 3666 2632 3958 
Q 2384 4250 1959 4250 
Q 1534 4250 1286 3958 
Q 1038 3666 1038 3163 
Q 1038 2656 1286 2365 
Q 1534 2075 1959 2075 
z
" transform="scale(0.015625)"/>
       </defs>
       <use xlink:href="#DejaVuSans-30"/>
       <use xlink:href="#DejaVuSans-2e" transform="translate(63.623047 0)"/>
       <use xlink:href="#DejaVuSans-39" transform="translate(95.410156 0)"/>
       <use xlink:href="#DejaVuSans-30" transform="translate(159.033203 0)"/>
      </g>
     </g>
    </g>
    <g id="text_17">
     <!-- test_balanced_accuracy -->
     <g transform="translate(13.529498 167.970548) rotate(-90) scale(0.0833 -0.0833)">
      <defs>
       <path id="DejaVuSans-73" d="M 2834 3397 
L 2834 2853 
Q 2591 2978 2328 3040 
Q 2066 3103 1784 3103 
Q 1356 3103 1142 2972 
Q 928 2841 928 2578 
Q 928 2378 1081 2264 
Q 1234 2150 1697 2047 
L 1894 2003 
Q 2506 1872 2764 1633 
Q 3022 1394 3022 966 
Q 3022 478 2636 193 
Q 2250 -91 1575 -91 
Q 1294 -91 989 -36 
Q 684 19 347 128 
L 347 722 
Q 666 556 975 473 
Q 1284 391 1588 391 
Q 1994 391 2212 530 
Q 2431 669 2431 922 
Q 2431 1156 2273 1281 
Q 2116 1406 1581 1522 
L 1381 1569 
Q 847 1681 609 1914 
Q 372 2147 372 2553 
Q 372 3047 722 3315 
Q 1072 3584 1716 3584 
Q 2034 3584 2315 3537 
Q 2597 3491 2834 3397 
z
" transform="scale(0.015625)"/>
       <path id="DejaVuSans-5f" d="M 3263 -1063 
L 3263 -1509 
L -63 -1509 
L -63 -1063 
L 3263 -1063 
z
" transform="scale(0.015625)"/>
       <path id="DejaVuSans-62" d="M 3116 1747 
Q 3116 2381 2855 2742 
Q 2594 3103 2138 3103 
Q 1681 3103 1420 2742 
Q 1159 2381 1159 1747 
Q 1159 1113 1420 752 
Q 1681 391 2138 391 
Q 2594 391 2855 752 
Q 3116 1113 3116 1747 
z
M 1159 2969 
Q 1341 3281 1617 3432 
Q 1894 3584 2278 3584 
Q 2916 3584 3314 3078 
Q 3713 2572 3713 1747 
Q 3713 922 3314 415 
Q 2916 -91 2278 -91 
Q 1894 -91 1617 61 
Q 1341 213 1159 525 
L 1159 0 
L 581 0 
L 581 4863 
L 1159 4863 
L 1159 2969 
z
" transform="scale(0.015625)"/>
       <path id="DejaVuSans-61" d="M 2194 1759 
Q 1497 1759 1228 1600 
Q 959 1441 959 1056 
Q 959 750 1161 570 
Q 1363 391 1709 391 
Q 2188 391 2477 730 
Q 2766 1069 2766 1631 
L 2766 1759 
L 2194 1759 
z
M 3341 1997 
L 3341 0 
L 2766 0 
L 2766 531 
Q 2569 213 2275 61 
Q 1981 -91 1556 -91 
Q 1019 -91 701 211 
Q 384 513 384 1019 
Q 384 1609 779 1909 
Q 1175 2209 1959 2209 
L 2766 2209 
L 2766 2266 
Q 2766 2663 2505 2880 
Q 2244 3097 1772 3097 
Q 1472 3097 1187 3025 
Q 903 2953 641 2809 
L 641 3341 
Q 956 3463 1253 3523 
Q 1550 3584 1831 3584 
Q 2591 3584 2966 3190 
Q 3341 2797 3341 1997 
z
" transform="scale(0.015625)"/>
       <path id="DejaVuSans-6c" d="M 603 4863 
L 1178 4863 
L 1178 0 
L 603 0 
L 603 4863 
z
" transform="scale(0.015625)"/>
       <path id="DejaVuSans-6e" d="M 3513 2113 
L 3513 0 
L 2938 0 
L 2938 2094 
Q 2938 2591 2744 2837 
Q 2550 3084 2163 3084 
Q 1697 3084 1428 2787 
Q 1159 2491 1159 1978 
L 1159 0 
L 581 0 
L 581 3500 
L 1159 3500 
L 1159 2956 
Q 1366 3272 1645 3428 
Q 1925 3584 2291 3584 
Q 2894 3584 3203 3211 
Q 3513 2838 3513 2113 
z
" transform="scale(0.015625)"/>
       <path id="DejaVuSans-63" d="M 3122 3366 
L 3122 2828 
Q 2878 2963 2633 3030 
Q 2388 3097 2138 3097 
Q 1578 3097 1268 2742 
Q 959 2388 959 1747 
Q 959 1106 1268 751 
Q 1578 397 2138 397 
Q 2388 397 2633 464 
Q 2878 531 3122 666 
L 3122 134 
Q 2881 22 2623 -34 
Q 2366 -91 2075 -91 
Q 1284 -91 818 406 
Q 353 903 353 1747 
Q 353 2603 823 3093 
Q 1294 3584 2113 3584 
Q 2378 3584 2631 3529 
Q 2884 3475 3122 3366 
z
" transform="scale(0.015625)"/>
       <path id="DejaVuSans-64" d="M 2906 2969 
L 2906 4863 
L 3481 4863 
L 3481 0 
L 2906 0 
L 2906 525 
Q 2725 213 2448 61 
Q 2172 -91 1784 -91 
Q 1150 -91 751 415 
Q 353 922 353 1747 
Q 353 2572 751 3078 
Q 1150 3584 1784 3584 
Q 2172 3584 2448 3432 
Q 2725 3281 2906 2969 
z
M 947 1747 
Q 947 1113 1208 752 
Q 1469 391 1925 391 
Q 2381 391 2643 752 
Q 2906 1113 2906 1747 
Q 2906 2381 2643 2742 
Q 2381 3103 1925 3103 
Q 1469 3103 1208 2742 
Q 947 2381 947 1747 
z
" transform="scale(0.015625)"/>
       <path id="DejaVuSans-75" d="M 544 1381 
L 544 3500 
L 1119 3500 
L 1119 1403 
Q 1119 906 1312 657 
Q 1506 409 1894 409 
Q 2359 409 2629 706 
Q 2900 1003 2900 1516 
L 2900 3500 
L 3475 3500 
L 3475 0 
L 2900 0 
L 2900 538 
Q 2691 219 2414 64 
Q 2138 -91 1772 -91 
Q 1169 -91 856 284 
Q 544 659 544 1381 
z
M 1991 3584 
L 1991 3584 
z
" transform="scale(0.015625)"/>
       <path id="DejaVuSans-72" d="M 2631 2963 
Q 2534 3019 2420 3045 
Q 2306 3072 2169 3072 
Q 1681 3072 1420 2755 
Q 1159 2438 1159 1844 
L 1159 0 
L 581 0 
L 581 3500 
L 1159 3500 
L 1159 2956 
Q 1341 3275 1631 3429 
Q 1922 3584 2338 3584 
Q 2397 3584 2469 3576 
Q 2541 3569 2628 3553 
L 2631 2963 
z
" transform="scale(0.015625)"/>
       <path id="DejaVuSans-79" d="M 2059 -325 
Q 1816 -950 1584 -1140 
Q 1353 -1331 966 -1331 
L 506 -1331 
L 506 -850 
L 844 -850 
Q 1081 -850 1212 -737 
Q 1344 -625 1503 -206 
L 1606 56 
L 191 3500 
L 800 3500 
L 1894 763 
L 2988 3500 
L 3597 3500 
L 2059 -325 
z
" transform="scale(0.015625)"/>
      </defs>
      <use xlink:href="#DejaVuSans-74"/>
      <use xlink:href="#DejaVuSans-65" transform="translate(39.208984 0)"/>
      <use xlink:href="#DejaVuSans-73" transform="translate(100.732422 0)"/>
      <use xlink:href="#DejaVuSans-74" transform="translate(152.832031 0)"/>
      <use xlink:href="#DejaVuSans-5f" transform="translate(192.041016 0)"/>
      <use xlink:href="#DejaVuSans-62" transform="translate(242.041016 0)"/>
      <use xlink:href="#DejaVuSans-61" transform="translate(305.517578 0)"/>
      <use xlink:href="#DejaVuSans-6c" transform="translate(366.796875 0)"/>
      <use xlink:href="#DejaVuSans-61" transform="translate(394.580078 0)"/>
      <use xlink:href="#DejaVuSans-6e" transform="translate(455.859375 0)"/>
      <use xlink:href="#DejaVuSans-63" transform="translate(519.238281 0)"/>
      <use xlink:href="#DejaVuSans-65" transform="translate(574.21875 0)"/>
      <use xlink:href="#DejaVuSans-64" transform="translate(635.742188 0)"/>
      <use xlink:href="#DejaVuSans-5f" transform="translate(699.21875 0)"/>
      <use xlink:href="#DejaVuSans-61" transform="translate(749.21875 0)"/>
      <use xlink:href="#DejaVuSans-63" transform="translate(810.498047 0)"/>
      <use xlink:href="#DejaVuSans-63" transform="translate(865.478516 0)"/>
      <use xlink:href="#DejaVuSans-75" transform="translate(920.458984 0)"/>
      <use xlink:href="#DejaVuSans-72" transform="translate(983.837891 0)"/>
      <use xlink:href="#DejaVuSans-61" transform="translate(1024.951172 0)"/>
      <use xlink:href="#DejaVuSans-63" transform="translate(1086.230469 0)"/>
      <use xlink:href="#DejaVuSans-79" transform="translate(1141.210938 0)"/>
     </g>
    </g>
   </g>
   <g id="line2d_16">
    <path d="M 57.171257 165.305373 
L 58.799503 167.766092 
L 60.427749 181.197683 
L 62.055995 174.521838 
L 63.684242 180.806966 
L 65.312488 183.506077 
L 66.940734 179.038127 
L 68.568981 185.231507 
L 70.197227 187.603291 
L 71.825473 191.99832 
L 73.453719 189.037496 
L 75.081966 181.713196 
L 76.710212 182.266498 
L 78.338458 179.971851 
L 79.966705 180.786426 
L 81.594951 182.708381 
L 83.223197 179.781282 
L 84.851443 183.200819 
L 88.107936 190.992576 
L 89.736182 196.332443 
L 92.992675 209.318383 
L 94.620921 211.103411 
L 96.249167 209.681278 
L 97.877414 204.744669 
L 99.50566 196.933725 
L 101.133906 199.669364 
L 102.762152 197.405034 
L 104.390399 200.118775 
L 106.018645 208.17635 
L 107.646891 200.784094 
L 109.275138 206.887675 
L 110.903384 207.032374 
L 112.53163 194.306102 
L 114.159876 188.180902 
L 115.788123 161.689453 
L 117.416369 174.64047 
L 119.044615 165.844624 
L 120.672862 159.960577 
L 122.301108 157.411568 
L 123.929354 155.171727 
L 125.5576 155.291138 
L 127.185847 156.359399 
L 128.814093 156.468603 
L 130.442339 157.592368 
L 132.070586 158.861175 
L 133.698832 160.387917 
L 135.327078 147.500017 
L 136.955324 149.18058 
L 138.583571 149.314594 
L 140.211817 143.612591 
L 141.840063 136.197282 
L 143.468309 130.192341 
L 145.096556 123.341927 
L 146.724802 123.312753 
L 148.353048 124.561372 
L 149.981295 127.690196 
L 151.609541 121.511416 
L 153.237787 116.776266 
L 154.866033 117.88288 
L 156.49428 112.753213 
L 158.122526 117.626996 
L 159.750772 117.17234 
L 161.379019 114.442223 
L 163.007265 116.276196 
L 164.635511 114.626491 
L 166.263757 110.081796 
L 167.892004 110.58234 
L 169.52025 106.854253 
L 171.148496 113.121659 
L 172.776743 103.824903 
L 174.404989 98.581291 
L 176.033235 94.546633 
L 177.661481 92.291606 
L 179.289728 96.974572 
L 180.917974 98.165261 
L 184.174466 103.382128 
L 185.802713 103.785885 
L 189.059205 105.724674 
L 190.687452 102.552927 
L 193.943944 90.936636 
L 195.57219 79.231621 
L 197.200437 70.039273 
L 198.828683 59.640204 
L 200.456929 47.343798 
L 202.085176 38.535181 
L 203.713422 31.09574 
L 205.341668 28.887757 
L 208.598161 24.842542 
L 210.226407 26.294574 
L 211.854653 32.524835 
L 213.482899 37.905046 
L 215.111146 44.904147 
L 216.739392 44.198952 
L 218.367638 49.818573 
L 219.995885 54.605406 
L 221.624131 60.296004 
L 223.252377 67.447669 
L 228.137116 94.345117 
L 229.765362 108.117287 
L 231.393609 115.664212 
L 233.021855 121.774362 
L 234.650101 124.165711 
L 236.278347 128.29039 
L 237.906594 132.024823 
L 239.53484 130.033799 
L 241.163086 138.769318 
L 242.791333 144.798664 
L 244.419579 155.750681 
L 246.047825 161.523584 
L 247.676071 164.973281 
L 249.304318 172.603947 
L 250.932564 175.147363 
L 252.56081 182.452339 
L 254.189056 177.45216 
L 255.817303 171.67957 
L 257.445549 162.265451 
L 259.073795 158.478372 
L 260.702042 163.090707 
L 262.330288 158.092364 
L 263.958534 154.834947 
L 265.58678 165.627479 
L 267.215027 171.634233 
L 268.843273 173.655349 
L 270.471519 175.452976 
L 272.099766 176.095961 
L 273.728012 175.194483 
L 275.356258 181.051903 
L 276.984504 178.31499 
L 278.612751 176.715354 
L 280.240997 170.748922 
L 283.49749 163.970085 
L 285.125736 167.818007 
L 286.753982 166.829419 
L 288.382228 157.079257 
L 290.010475 153.647685 
L 291.638721 153.990177 
L 293.266967 156.131465 
L 294.895213 151.21342 
L 296.52346 156.562651 
L 298.151706 160.085568 
L 299.779952 162.567932 
L 299.779952 162.567932 
" clip-path="url(#p7d91330ef9)" style="fill: none; stroke: #1f77b4; stroke-width: 1.5; stroke-linecap: square"/>
   </g>
   <g id="patch_3">
    <path d="M 45.040822 220.416455 
L 45.040822 15.529498 
" style="fill: none; stroke: #000000; stroke-width: 0.8; stroke-linejoin: miter; stroke-linecap: square"/>
   </g>
   <g id="patch_4">
    <path d="M 311.910387 220.416455 
L 311.910387 15.529498 
" style="fill: none; stroke: #000000; stroke-width: 0.8; stroke-linejoin: miter; stroke-linecap: square"/>
   </g>
   <g id="patch_5">
    <path d="M 45.040822 220.416455 
L 311.910387 220.416455 
" style="fill: none; stroke: #000000; stroke-width: 0.8; stroke-linejoin: miter; stroke-linecap: square"/>
   </g>
   <g id="patch_6">
    <path d="M 45.040822 15.529498 
L 311.910387 15.529498 
" style="fill: none; stroke: #000000; stroke-width: 0.8; stroke-linejoin: miter; stroke-linecap: square"/>
   </g>
   <g id="text_18">
    <!-- loss_gain=-1.0_2.0 -->
    <g transform="translate(139.032404 13.529498) scale(0.0833 -0.0833)">
     <defs>
      <path id="DejaVuSans-6f" d="M 1959 3097 
Q 1497 3097 1228 2736 
Q 959 2375 959 1747 
Q 959 1119 1226 758 
Q 1494 397 1959 397 
Q 2419 397 2687 759 
Q 2956 1122 2956 1747 
Q 2956 2369 2687 2733 
Q 2419 3097 1959 3097 
z
M 1959 3584 
Q 2709 3584 3137 3096 
Q 3566 2609 3566 1747 
Q 3566 888 3137 398 
Q 2709 -91 1959 -91 
Q 1206 -91 779 398 
Q 353 888 353 1747 
Q 353 2609 779 3096 
Q 1206 3584 1959 3584 
z
" transform="scale(0.015625)"/>
      <path id="DejaVuSans-67" d="M 2906 1791 
Q 2906 2416 2648 2759 
Q 2391 3103 1925 3103 
Q 1463 3103 1205 2759 
Q 947 2416 947 1791 
Q 947 1169 1205 825 
Q 1463 481 1925 481 
Q 2391 481 2648 825 
Q 2906 1169 2906 1791 
z
M 3481 434 
Q 3481 -459 3084 -895 
Q 2688 -1331 1869 -1331 
Q 1566 -1331 1297 -1286 
Q 1028 -1241 775 -1147 
L 775 -588 
Q 1028 -725 1275 -790 
Q 1522 -856 1778 -856 
Q 2344 -856 2625 -561 
Q 2906 -266 2906 331 
L 2906 616 
Q 2728 306 2450 153 
Q 2172 0 1784 0 
Q 1141 0 747 490 
Q 353 981 353 1791 
Q 353 2603 747 3093 
Q 1141 3584 1784 3584 
Q 2172 3584 2450 3431 
Q 2728 3278 2906 2969 
L 2906 3500 
L 3481 3500 
L 3481 434 
z
" transform="scale(0.015625)"/>
      <path id="DejaVuSans-3d" d="M 678 2906 
L 4684 2906 
L 4684 2381 
L 678 2381 
L 678 2906 
z
M 678 1631 
L 4684 1631 
L 4684 1100 
L 678 1100 
L 678 1631 
z
" transform="scale(0.015625)"/>
      <path id="DejaVuSans-2d" d="M 313 2009 
L 1997 2009 
L 1997 1497 
L 313 1497 
L 313 2009 
z
" transform="scale(0.015625)"/>
      <path id="DejaVuSans-32" d="M 1228 531 
L 3431 531 
L 3431 0 
L 469 0 
L 469 531 
Q 828 903 1448 1529 
Q 2069 2156 2228 2338 
Q 2531 2678 2651 2914 
Q 2772 3150 2772 3378 
Q 2772 3750 2511 3984 
Q 2250 4219 1831 4219 
Q 1534 4219 1204 4116 
Q 875 4013 500 3803 
L 500 4441 
Q 881 4594 1212 4672 
Q 1544 4750 1819 4750 
Q 2544 4750 2975 4387 
Q 3406 4025 3406 3419 
Q 3406 3131 3298 2873 
Q 3191 2616 2906 2266 
Q 2828 2175 2409 1742 
Q 1991 1309 1228 531 
z
" transform="scale(0.015625)"/>
     </defs>
     <use xlink:href="#DejaVuSans-6c"/>
     <use xlink:href="#DejaVuSans-6f" transform="translate(27.783203 0)"/>
     <use xlink:href="#DejaVuSans-73" transform="translate(88.964844 0)"/>
     <use xlink:href="#DejaVuSans-73" transform="translate(141.064453 0)"/>
     <use xlink:href="#DejaVuSans-5f" transform="translate(193.164062 0)"/>
     <use xlink:href="#DejaVuSans-67" transform="translate(243.164062 0)"/>
     <use xlink:href="#DejaVuSans-61" transform="translate(306.640625 0)"/>
     <use xlink:href="#DejaVuSans-69" transform="translate(367.919922 0)"/>
     <use xlink:href="#DejaVuSans-6e" transform="translate(395.703125 0)"/>
     <use xlink:href="#DejaVuSans-3d" transform="translate(459.082031 0)"/>
     <use xlink:href="#DejaVuSans-2d" transform="translate(542.871094 0)"/>
     <use xlink:href="#DejaVuSans-31" transform="translate(578.955078 0)"/>
     <use xlink:href="#DejaVuSans-2e" transform="translate(642.578125 0)"/>
     <use xlink:href="#DejaVuSans-30" transform="translate(674.365234 0)"/>
     <use xlink:href="#DejaVuSans-5f" transform="translate(737.988281 0)"/>
     <use xlink:href="#DejaVuSans-32" transform="translate(787.988281 0)"/>
     <use xlink:href="#DejaVuSans-2e" transform="translate(851.611328 0)"/>
     <use xlink:href="#DejaVuSans-30" transform="translate(883.398438 0)"/>
    </g>
   </g>
  </g>
  <g id="axes_2">
   <g id="patch_7">
    <path d="M 391.971257 220.416455 
L 658.840822 220.416455 
L 658.840822 15.529498 
L 391.971257 15.529498 
z
" style="fill: #ffffff"/>
   </g>
   <g id="matplotlib.axis_3">
    <g id="xtick_8">
     <g id="line2d_17">
      <g>
       <use xlink:href="#m2273ec937f" x="404.101691" y="220.416455" style="stroke: #000000; stroke-width: 0.8"/>
      </g>
     </g>
     <g id="text_19">
      <!-- −1.5 -->
      <g transform="translate(393.9879 233.745953) scale(0.0833 -0.0833)">
       <use xlink:href="#DejaVuSans-2212"/>
       <use xlink:href="#DejaVuSans-31" transform="translate(83.789062 0)"/>
       <use xlink:href="#DejaVuSans-2e" transform="translate(147.412109 0)"/>
       <use xlink:href="#DejaVuSans-35" transform="translate(179.199219 0)"/>
      </g>
     </g>
    </g>
    <g id="xtick_9">
     <g id="line2d_18">
      <g>
       <use xlink:href="#m2273ec937f" x="444.807848" y="220.416455" style="stroke: #000000; stroke-width: 0.8"/>
      </g>
     </g>
     <g id="text_20">
      <!-- −1.0 -->
      <g transform="translate(434.694057 233.745953) scale(0.0833 -0.0833)">
       <use xlink:href="#DejaVuSans-2212"/>
       <use xlink:href="#DejaVuSans-31" transform="translate(83.789062 0)"/>
       <use xlink:href="#DejaVuSans-2e" transform="translate(147.412109 0)"/>
       <use xlink:href="#DejaVuSans-30" transform="translate(179.199219 0)"/>
      </g>
     </g>
    </g>
    <g id="xtick_10">
     <g id="line2d_19">
      <g>
       <use xlink:href="#m2273ec937f" x="485.514005" y="220.416455" style="stroke: #000000; stroke-width: 0.8"/>
      </g>
     </g>
     <g id="text_21">
      <!-- −0.5 -->
      <g transform="translate(475.400214 233.745953) scale(0.0833 -0.0833)">
       <use xlink:href="#DejaVuSans-2212"/>
       <use xlink:href="#DejaVuSans-30" transform="translate(83.789062 0)"/>
       <use xlink:href="#DejaVuSans-2e" transform="translate(147.412109 0)"/>
       <use xlink:href="#DejaVuSans-35" transform="translate(179.199219 0)"/>
      </g>
     </g>
    </g>
    <g id="xtick_11">
     <g id="line2d_20">
      <g>
       <use xlink:href="#m2273ec937f" x="526.220162" y="220.416455" style="stroke: #000000; stroke-width: 0.8"/>
      </g>
     </g>
     <g id="text_22">
      <!-- 0.0 -->
      <g transform="translate(519.596511 233.745953) scale(0.0833 -0.0833)">
       <use xlink:href="#DejaVuSans-30"/>
       <use xlink:href="#DejaVuSans-2e" transform="translate(63.623047 0)"/>
       <use xlink:href="#DejaVuSans-30" transform="translate(95.410156 0)"/>
      </g>
     </g>
    </g>
    <g id="xtick_12">
     <g id="line2d_21">
      <g>
       <use xlink:href="#m2273ec937f" x="566.926319" y="220.416455" style="stroke: #000000; stroke-width: 0.8"/>
      </g>
     </g>
     <g id="text_23">
      <!-- 0.5 -->
      <g transform="translate(560.302668 233.745953) scale(0.0833 -0.0833)">
       <use xlink:href="#DejaVuSans-30"/>
       <use xlink:href="#DejaVuSans-2e" transform="translate(63.623047 0)"/>
       <use xlink:href="#DejaVuSans-35" transform="translate(95.410156 0)"/>
      </g>
     </g>
    </g>
    <g id="xtick_13">
     <g id="line2d_22">
      <g>
       <use xlink:href="#m2273ec937f" x="607.632476" y="220.416455" style="stroke: #000000; stroke-width: 0.8"/>
      </g>
     </g>
     <g id="text_24">
      <!-- 1.0 -->
      <g transform="translate(601.008825 233.745953) scale(0.0833 -0.0833)">
       <use xlink:href="#DejaVuSans-31"/>
       <use xlink:href="#DejaVuSans-2e" transform="translate(63.623047 0)"/>
       <use xlink:href="#DejaVuSans-30" transform="translate(95.410156 0)"/>
      </g>
     </g>
    </g>
    <g id="xtick_14">
     <g id="line2d_23">
      <g>
       <use xlink:href="#m2273ec937f" x="648.338633" y="220.416455" style="stroke: #000000; stroke-width: 0.8"/>
      </g>
     </g>
     <g id="text_25">
      <!-- 1.5 -->
      <g transform="translate(641.714982 233.745953) scale(0.0833 -0.0833)">
       <use xlink:href="#DejaVuSans-31"/>
       <use xlink:href="#DejaVuSans-2e" transform="translate(63.623047 0)"/>
       <use xlink:href="#DejaVuSans-35" transform="translate(95.410156 0)"/>
      </g>
     </g>
    </g>
    <g id="text_26">
     <!-- time -->
     <g transform="translate(515.996393 245.807832) scale(0.0833 -0.0833)">
      <use xlink:href="#DejaVuSans-74"/>
      <use xlink:href="#DejaVuSans-69" transform="translate(39.208984 0)"/>
      <use xlink:href="#DejaVuSans-6d" transform="translate(66.992188 0)"/>
      <use xlink:href="#DejaVuSans-65" transform="translate(164.404297 0)"/>
     </g>
    </g>
   </g>
   <g id="matplotlib.axis_4">
    <g id="ytick_9">
     <g id="line2d_24">
      <g>
       <use xlink:href="#m6f16a4d5b7" x="391.971257" y="199.177705" style="stroke: #000000; stroke-width: 0.8"/>
      </g>
     </g>
     <g id="text_27">
      <!-- 0.5 -->
      <g transform="translate(371.723954 202.342455) scale(0.0833 -0.0833)">
       <use xlink:href="#DejaVuSans-30"/>
       <use xlink:href="#DejaVuSans-2e" transform="translate(63.623047 0)"/>
       <use xlink:href="#DejaVuSans-35" transform="translate(95.410156 0)"/>
      </g>
     </g>
    </g>
    <g id="ytick_10">
     <g id="line2d_25">
      <g>
       <use xlink:href="#m6f16a4d5b7" x="391.971257" y="158.862351" style="stroke: #000000; stroke-width: 0.8"/>
      </g>
     </g>
     <g id="text_28">
      <!-- 0.6 -->
      <g transform="translate(371.723954 162.0271) scale(0.0833 -0.0833)">
       <use xlink:href="#DejaVuSans-30"/>
       <use xlink:href="#DejaVuSans-2e" transform="translate(63.623047 0)"/>
       <use xlink:href="#DejaVuSans-36" transform="translate(95.410156 0)"/>
      </g>
     </g>
    </g>
    <g id="ytick_11">
     <g id="line2d_26">
      <g>
       <use xlink:href="#m6f16a4d5b7" x="391.971257" y="118.546996" style="stroke: #000000; stroke-width: 0.8"/>
      </g>
     </g>
     <g id="text_29">
      <!-- 0.7 -->
      <g transform="translate(371.723954 121.711745) scale(0.0833 -0.0833)">
       <use xlink:href="#DejaVuSans-30"/>
       <use xlink:href="#DejaVuSans-2e" transform="translate(63.623047 0)"/>
       <use xlink:href="#DejaVuSans-37" transform="translate(95.410156 0)"/>
      </g>
     </g>
    </g>
    <g id="ytick_12">
     <g id="line2d_27">
      <g>
       <use xlink:href="#m6f16a4d5b7" x="391.971257" y="78.231641" style="stroke: #000000; stroke-width: 0.8"/>
      </g>
     </g>
     <g id="text_30">
      <!-- 0.8 -->
      <g transform="translate(371.723954 81.396391) scale(0.0833 -0.0833)">
       <use xlink:href="#DejaVuSans-30"/>
       <use xlink:href="#DejaVuSans-2e" transform="translate(63.623047 0)"/>
       <use xlink:href="#DejaVuSans-38" transform="translate(95.410156 0)"/>
      </g>
     </g>
    </g>
    <g id="ytick_13">
     <g id="line2d_28">
      <g>
       <use xlink:href="#m6f16a4d5b7" x="391.971257" y="37.916287" style="stroke: #000000; stroke-width: 0.8"/>
      </g>
     </g>
     <g id="text_31">
      <!-- 0.9 -->
      <g transform="translate(371.723954 41.081036) scale(0.0833 -0.0833)">
       <use xlink:href="#DejaVuSans-30"/>
       <use xlink:href="#DejaVuSans-2e" transform="translate(63.623047 0)"/>
       <use xlink:href="#DejaVuSans-39" transform="translate(95.410156 0)"/>
      </g>
     </g>
    </g>
    <g id="text_32">
     <!-- test_balanced_accuracy -->
     <g transform="translate(365.759896 167.970548) rotate(-90) scale(0.0833 -0.0833)">
      <use xlink:href="#DejaVuSans-74"/>
      <use xlink:href="#DejaVuSans-65" transform="translate(39.208984 0)"/>
      <use xlink:href="#DejaVuSans-73" transform="translate(100.732422 0)"/>
      <use xlink:href="#DejaVuSans-74" transform="translate(152.832031 0)"/>
      <use xlink:href="#DejaVuSans-5f" transform="translate(192.041016 0)"/>
      <use xlink:href="#DejaVuSans-62" transform="translate(242.041016 0)"/>
      <use xlink:href="#DejaVuSans-61" transform="translate(305.517578 0)"/>
      <use xlink:href="#DejaVuSans-6c" transform="translate(366.796875 0)"/>
      <use xlink:href="#DejaVuSans-61" transform="translate(394.580078 0)"/>
      <use xlink:href="#DejaVuSans-6e" transform="translate(455.859375 0)"/>
      <use xlink:href="#DejaVuSans-63" transform="translate(519.238281 0)"/>
      <use xlink:href="#DejaVuSans-65" transform="translate(574.21875 0)"/>
      <use xlink:href="#DejaVuSans-64" transform="translate(635.742188 0)"/>
      <use xlink:href="#DejaVuSans-5f" transform="translate(699.21875 0)"/>
      <use xlink:href="#DejaVuSans-61" transform="translate(749.21875 0)"/>
      <use xlink:href="#DejaVuSans-63" transform="translate(810.498047 0)"/>
      <use xlink:href="#DejaVuSans-63" transform="translate(865.478516 0)"/>
      <use xlink:href="#DejaVuSans-75" transform="translate(920.458984 0)"/>
      <use xlink:href="#DejaVuSans-72" transform="translate(983.837891 0)"/>
      <use xlink:href="#DejaVuSans-61" transform="translate(1024.951172 0)"/>
      <use xlink:href="#DejaVuSans-63" transform="translate(1086.230469 0)"/>
      <use xlink:href="#DejaVuSans-79" transform="translate(1141.210938 0)"/>
     </g>
    </g>
   </g>
   <g id="line2d_29">
    <path d="M 404.101691 195.458123 
L 405.729938 194.285137 
L 407.358184 192.643444 
L 408.98643 205.452688 
L 410.614677 196.783428 
L 412.242923 211.103411 
L 413.871169 197.779263 
L 415.499415 206.091061 
L 417.127662 210.693123 
L 418.755908 184.688055 
L 420.384154 182.184753 
L 422.012401 185.899261 
L 423.640647 179.426233 
L 426.897139 191.553777 
L 428.525386 187.221977 
L 430.153632 180.32238 
L 431.781878 187.818661 
L 433.410124 187.261195 
L 435.038371 180.46771 
L 436.666617 184.732352 
L 438.294863 186.193358 
L 439.92311 187.212922 
L 441.551356 182.193709 
L 443.179602 178.660304 
L 444.807848 171.635319 
L 446.436095 173.755592 
L 448.064341 169.358268 
L 449.692587 165.998557 
L 451.320834 168.83389 
L 452.94908 172.16616 
L 454.577326 159.597864 
L 456.205572 159.96936 
L 457.833819 163.628035 
L 459.462065 161.648597 
L 461.090311 163.737027 
L 462.718558 157.023215 
L 464.346804 153.189724 
L 465.97505 144.236328 
L 467.603296 138.145864 
L 469.231543 133.720162 
L 470.859789 133.250427 
L 472.488035 128.640172 
L 474.116281 118.311895 
L 475.744528 114.756546 
L 477.372774 118.092497 
L 479.00102 118.497824 
L 480.629267 115.754424 
L 482.257513 111.455698 
L 483.885759 112.892819 
L 485.514005 110.609311 
L 487.142252 109.060129 
L 488.770498 109.7701 
L 490.398744 108.291075 
L 492.026991 110.730299 
L 493.655237 107.02211 
L 495.283483 113.955811 
L 496.911729 105.396166 
L 498.539976 102.577188 
L 500.168222 100.213924 
L 501.796468 97.085859 
L 503.424714 92.641189 
L 505.052961 89.530503 
L 506.681207 89.178458 
L 508.309453 84.521867 
L 509.9377 81.743468 
L 511.565946 80.248065 
L 513.194192 79.043902 
L 514.822438 81.614744 
L 516.450685 79.477026 
L 518.078931 74.727023 
L 519.707177 75.045022 
L 521.335424 76.036883 
L 522.96367 75.532259 
L 524.591916 75.182012 
L 526.220162 77.768221 
L 527.848409 79.772752 
L 529.476655 78.448358 
L 531.104901 75.027343 
L 532.733148 74.54348 
L 534.361394 76.119439 
L 535.98964 75.174574 
L 537.617886 73.374261 
L 539.246133 73.693056 
L 540.874379 68.451312 
L 542.502625 65.290707 
L 544.130871 56.407968 
L 549.01561 37.101686 
L 552.272103 30.108766 
L 553.900349 26.579354 
L 555.528595 24.842542 
L 557.156842 25.780475 
L 558.785088 26.955138 
L 560.413334 28.763622 
L 562.041581 31.250059 
L 563.669827 34.417895 
L 565.298073 38.573771 
L 566.926319 40.267311 
L 568.554566 42.731791 
L 570.182812 45.768334 
L 571.811058 50.416298 
L 575.067551 57.720673 
L 576.695797 55.893906 
L 578.324043 60.132751 
L 579.95229 63.047305 
L 581.580536 67.637068 
L 583.208782 78.153885 
L 584.837028 86.11105 
L 586.465275 89.64865 
L 588.093521 91.615631 
L 589.721767 94.687654 
L 591.350014 98.247708 
L 594.606506 104.699165 
L 596.234752 106.281343 
L 597.862999 110.157277 
L 599.491245 115.856133 
L 601.119491 118.507669 
L 602.747738 125.854771 
L 604.375984 129.589624 
L 606.00423 129.658882 
L 607.632476 131.964748 
L 609.260723 147.771646 
L 610.888969 142.374095 
L 612.517215 138.809191 
L 614.145462 136.60034 
L 615.773708 139.378357 
L 617.401954 138.810742 
L 619.0302 141.722919 
L 620.658447 145.082906 
L 622.286693 147.597251 
L 623.914939 145.335956 
L 625.543185 142.099577 
L 627.171432 144.218197 
L 628.799678 145.609224 
L 630.427924 144.821093 
L 632.056171 145.11756 
L 633.684417 150.478535 
L 635.312663 155.378176 
L 636.940909 154.504869 
L 638.569156 151.182627 
L 640.197402 150.899834 
L 641.825648 153.826572 
L 643.453895 151.556448 
L 645.082141 153.00664 
L 646.710387 154.274554 
L 646.710387 154.274554 
" clip-path="url(#p9e6e6370f0)" style="fill: none; stroke: #1f77b4; stroke-width: 1.5; stroke-linecap: square"/>
   </g>
   <g id="patch_8">
    <path d="M 391.971257 220.416455 
L 391.971257 15.529498 
" style="fill: none; stroke: #000000; stroke-width: 0.8; stroke-linejoin: miter; stroke-linecap: square"/>
   </g>
   <g id="patch_9">
    <path d="M 658.840822 220.416455 
L 658.840822 15.529498 
" style="fill: none; stroke: #000000; stroke-width: 0.8; stroke-linejoin: miter; stroke-linecap: square"/>
   </g>
   <g id="patch_10">
    <path d="M 391.971257 220.416455 
L 658.840822 220.416455 
" style="fill: none; stroke: #000000; stroke-width: 0.8; stroke-linejoin: miter; stroke-linecap: square"/>
   </g>
   <g id="patch_11">
    <path d="M 391.971257 15.529498 
L 658.840822 15.529498 
" style="fill: none; stroke: #000000; stroke-width: 0.8; stroke-linejoin: miter; stroke-linecap: square"/>
   </g>
   <g id="text_33">
    <!-- loss_gain=-1.0_3.0 -->
    <g transform="translate(485.962838 13.529498) scale(0.0833 -0.0833)">
     <defs>
      <path id="DejaVuSans-33" d="M 2597 2516 
Q 3050 2419 3304 2112 
Q 3559 1806 3559 1356 
Q 3559 666 3084 287 
Q 2609 -91 1734 -91 
Q 1441 -91 1130 -33 
Q 819 25 488 141 
L 488 750 
Q 750 597 1062 519 
Q 1375 441 1716 441 
Q 2309 441 2620 675 
Q 2931 909 2931 1356 
Q 2931 1769 2642 2001 
Q 2353 2234 1838 2234 
L 1294 2234 
L 1294 2753 
L 1863 2753 
Q 2328 2753 2575 2939 
Q 2822 3125 2822 3475 
Q 2822 3834 2567 4026 
Q 2313 4219 1838 4219 
Q 1578 4219 1281 4162 
Q 984 4106 628 3988 
L 628 4550 
Q 988 4650 1302 4700 
Q 1616 4750 1894 4750 
Q 2613 4750 3031 4423 
Q 3450 4097 3450 3541 
Q 3450 3153 3228 2886 
Q 3006 2619 2597 2516 
z
" transform="scale(0.015625)"/>
     </defs>
     <use xlink:href="#DejaVuSans-6c"/>
     <use xlink:href="#DejaVuSans-6f" transform="translate(27.783203 0)"/>
     <use xlink:href="#DejaVuSans-73" transform="translate(88.964844 0)"/>
     <use xlink:href="#DejaVuSans-73" transform="translate(141.064453 0)"/>
     <use xlink:href="#DejaVuSans-5f" transform="translate(193.164062 0)"/>
     <use xlink:href="#DejaVuSans-67" transform="translate(243.164062 0)"/>
     <use xlink:href="#DejaVuSans-61" transform="translate(306.640625 0)"/>
     <use xlink:href="#DejaVuSans-69" transform="translate(367.919922 0)"/>
     <use xlink:href="#DejaVuSans-6e" transform="translate(395.703125 0)"/>
     <use xlink:href="#DejaVuSans-3d" transform="translate(459.082031 0)"/>
     <use xlink:href="#DejaVuSans-2d" transform="translate(542.871094 0)"/>
     <use xlink:href="#DejaVuSans-31" transform="translate(578.955078 0)"/>
     <use xlink:href="#DejaVuSans-2e" transform="translate(642.578125 0)"/>
     <use xlink:href="#DejaVuSans-30" transform="translate(674.365234 0)"/>
     <use xlink:href="#DejaVuSans-5f" transform="translate(737.988281 0)"/>
     <use xlink:href="#DejaVuSans-33" transform="translate(787.988281 0)"/>
     <use xlink:href="#DejaVuSans-2e" transform="translate(851.611328 0)"/>
     <use xlink:href="#DejaVuSans-30" transform="translate(883.398438 0)"/>
    </g>
   </g>
  </g>
  <g id="axes_3">
   <g id="patch_12">
    <path d="M 45.040822 486.769498 
L 311.910387 486.769498 
L 311.910387 281.882542 
L 45.040822 281.882542 
z
" style="fill: #ffffff"/>
   </g>
   <g id="matplotlib.axis_5">
    <g id="xtick_15">
     <g id="line2d_30">
      <g>
       <use xlink:href="#m2273ec937f" x="57.171257" y="486.769498" style="stroke: #000000; stroke-width: 0.8"/>
      </g>
     </g>
     <g id="text_34">
      <!-- −1.5 -->
      <g transform="translate(47.057465 500.098997) scale(0.0833 -0.0833)">
       <use xlink:href="#DejaVuSans-2212"/>
       <use xlink:href="#DejaVuSans-31" transform="translate(83.789062 0)"/>
       <use xlink:href="#DejaVuSans-2e" transform="translate(147.412109 0)"/>
       <use xlink:href="#DejaVuSans-35" transform="translate(179.199219 0)"/>
      </g>
     </g>
    </g>
    <g id="xtick_16">
     <g id="line2d_31">
      <g>
       <use xlink:href="#m2273ec937f" x="97.877414" y="486.769498" style="stroke: #000000; stroke-width: 0.8"/>
      </g>
     </g>
     <g id="text_35">
      <!-- −1.0 -->
      <g transform="translate(87.763622 500.098997) scale(0.0833 -0.0833)">
       <use xlink:href="#DejaVuSans-2212"/>
       <use xlink:href="#DejaVuSans-31" transform="translate(83.789062 0)"/>
       <use xlink:href="#DejaVuSans-2e" transform="translate(147.412109 0)"/>
       <use xlink:href="#DejaVuSans-30" transform="translate(179.199219 0)"/>
      </g>
     </g>
    </g>
    <g id="xtick_17">
     <g id="line2d_32">
      <g>
       <use xlink:href="#m2273ec937f" x="138.583571" y="486.769498" style="stroke: #000000; stroke-width: 0.8"/>
      </g>
     </g>
     <g id="text_36">
      <!-- −0.5 -->
      <g transform="translate(128.469779 500.098997) scale(0.0833 -0.0833)">
       <use xlink:href="#DejaVuSans-2212"/>
       <use xlink:href="#DejaVuSans-30" transform="translate(83.789062 0)"/>
       <use xlink:href="#DejaVuSans-2e" transform="translate(147.412109 0)"/>
       <use xlink:href="#DejaVuSans-35" transform="translate(179.199219 0)"/>
      </g>
     </g>
    </g>
    <g id="xtick_18">
     <g id="line2d_33">
      <g>
       <use xlink:href="#m2273ec937f" x="179.289728" y="486.769498" style="stroke: #000000; stroke-width: 0.8"/>
      </g>
     </g>
     <g id="text_37">
      <!-- 0.0 -->
      <g transform="translate(172.666076 500.098997) scale(0.0833 -0.0833)">
       <use xlink:href="#DejaVuSans-30"/>
       <use xlink:href="#DejaVuSans-2e" transform="translate(63.623047 0)"/>
       <use xlink:href="#DejaVuSans-30" transform="translate(95.410156 0)"/>
      </g>
     </g>
    </g>
    <g id="xtick_19">
     <g id="line2d_34">
      <g>
       <use xlink:href="#m2273ec937f" x="219.995885" y="486.769498" style="stroke: #000000; stroke-width: 0.8"/>
      </g>
     </g>
     <g id="text_38">
      <!-- 0.5 -->
      <g transform="translate(213.372233 500.098997) scale(0.0833 -0.0833)">
       <use xlink:href="#DejaVuSans-30"/>
       <use xlink:href="#DejaVuSans-2e" transform="translate(63.623047 0)"/>
       <use xlink:href="#DejaVuSans-35" transform="translate(95.410156 0)"/>
      </g>
     </g>
    </g>
    <g id="xtick_20">
     <g id="line2d_35">
      <g>
       <use xlink:href="#m2273ec937f" x="260.702042" y="486.769498" style="stroke: #000000; stroke-width: 0.8"/>
      </g>
     </g>
     <g id="text_39">
      <!-- 1.0 -->
      <g transform="translate(254.07839 500.098997) scale(0.0833 -0.0833)">
       <use xlink:href="#DejaVuSans-31"/>
       <use xlink:href="#DejaVuSans-2e" transform="translate(63.623047 0)"/>
       <use xlink:href="#DejaVuSans-30" transform="translate(95.410156 0)"/>
      </g>
     </g>
    </g>
    <g id="xtick_21">
     <g id="line2d_36">
      <g>
       <use xlink:href="#m2273ec937f" x="301.408199" y="486.769498" style="stroke: #000000; stroke-width: 0.8"/>
      </g>
     </g>
     <g id="text_40">
      <!-- 1.5 -->
      <g transform="translate(294.784547 500.098997) scale(0.0833 -0.0833)">
       <use xlink:href="#DejaVuSans-31"/>
       <use xlink:href="#DejaVuSans-2e" transform="translate(63.623047 0)"/>
       <use xlink:href="#DejaVuSans-35" transform="translate(95.410156 0)"/>
      </g>
     </g>
    </g>
    <g id="text_41">
     <!-- time -->
     <g transform="translate(169.065958 512.160875) scale(0.0833 -0.0833)">
      <use xlink:href="#DejaVuSans-74"/>
      <use xlink:href="#DejaVuSans-69" transform="translate(39.208984 0)"/>
      <use xlink:href="#DejaVuSans-6d" transform="translate(66.992188 0)"/>
      <use xlink:href="#DejaVuSans-65" transform="translate(164.404297 0)"/>
     </g>
    </g>
   </g>
   <g id="matplotlib.axis_6">
    <g id="ytick_14">
     <g id="line2d_37">
      <g>
       <use xlink:href="#m6f16a4d5b7" x="45.040822" y="472.022848" style="stroke: #000000; stroke-width: 0.8"/>
      </g>
     </g>
     <g id="text_42">
      <!-- 0.4 -->
      <g transform="translate(24.793519 475.187597) scale(0.0833 -0.0833)">
       <defs>
        <path id="DejaVuSans-34" d="M 2419 4116 
L 825 1625 
L 2419 1625 
L 2419 4116 
z
M 2253 4666 
L 3047 4666 
L 3047 1625 
L 3713 1625 
L 3713 1100 
L 3047 1100 
L 3047 0 
L 2419 0 
L 2419 1100 
L 313 1100 
L 313 1709 
L 2253 4666 
z
" transform="scale(0.015625)"/>
       </defs>
       <use xlink:href="#DejaVuSans-30"/>
       <use xlink:href="#DejaVuSans-2e" transform="translate(63.623047 0)"/>
       <use xlink:href="#DejaVuSans-34" transform="translate(95.410156 0)"/>
      </g>
     </g>
    </g>
    <g id="ytick_15">
     <g id="line2d_38">
      <g>
       <use xlink:href="#m6f16a4d5b7" x="45.040822" y="437.485766" style="stroke: #000000; stroke-width: 0.8"/>
      </g>
     </g>
     <g id="text_43">
      <!-- 0.5 -->
      <g transform="translate(24.793519 440.650515) scale(0.0833 -0.0833)">
       <use xlink:href="#DejaVuSans-30"/>
       <use xlink:href="#DejaVuSans-2e" transform="translate(63.623047 0)"/>
       <use xlink:href="#DejaVuSans-35" transform="translate(95.410156 0)"/>
      </g>
     </g>
    </g>
    <g id="ytick_16">
     <g id="line2d_39">
      <g>
       <use xlink:href="#m6f16a4d5b7" x="45.040822" y="402.948684" style="stroke: #000000; stroke-width: 0.8"/>
      </g>
     </g>
     <g id="text_44">
      <!-- 0.6 -->
      <g transform="translate(24.793519 406.113433) scale(0.0833 -0.0833)">
       <use xlink:href="#DejaVuSans-30"/>
       <use xlink:href="#DejaVuSans-2e" transform="translate(63.623047 0)"/>
       <use xlink:href="#DejaVuSans-36" transform="translate(95.410156 0)"/>
      </g>
     </g>
    </g>
    <g id="ytick_17">
     <g id="line2d_40">
      <g>
       <use xlink:href="#m6f16a4d5b7" x="45.040822" y="368.411602" style="stroke: #000000; stroke-width: 0.8"/>
      </g>
     </g>
     <g id="text_45">
      <!-- 0.7 -->
      <g transform="translate(24.793519 371.576351) scale(0.0833 -0.0833)">
       <use xlink:href="#DejaVuSans-30"/>
       <use xlink:href="#DejaVuSans-2e" transform="translate(63.623047 0)"/>
       <use xlink:href="#DejaVuSans-37" transform="translate(95.410156 0)"/>
      </g>
     </g>
    </g>
    <g id="ytick_18">
     <g id="line2d_41">
      <g>
       <use xlink:href="#m6f16a4d5b7" x="45.040822" y="333.87452" style="stroke: #000000; stroke-width: 0.8"/>
      </g>
     </g>
     <g id="text_46">
      <!-- 0.8 -->
      <g transform="translate(24.793519 337.039269) scale(0.0833 -0.0833)">
       <use xlink:href="#DejaVuSans-30"/>
       <use xlink:href="#DejaVuSans-2e" transform="translate(63.623047 0)"/>
       <use xlink:href="#DejaVuSans-38" transform="translate(95.410156 0)"/>
      </g>
     </g>
    </g>
    <g id="ytick_19">
     <g id="line2d_42">
      <g>
       <use xlink:href="#m6f16a4d5b7" x="45.040822" y="299.337438" style="stroke: #000000; stroke-width: 0.8"/>
      </g>
     </g>
     <g id="text_47">
      <!-- 0.9 -->
      <g transform="translate(24.793519 302.502187) scale(0.0833 -0.0833)">
       <use xlink:href="#DejaVuSans-30"/>
       <use xlink:href="#DejaVuSans-2e" transform="translate(63.623047 0)"/>
       <use xlink:href="#DejaVuSans-39" transform="translate(95.410156 0)"/>
      </g>
     </g>
    </g>
    <g id="text_48">
     <!-- test_balanced_accuracy -->
     <g transform="translate(18.829461 434.323591) rotate(-90) scale(0.0833 -0.0833)">
      <use xlink:href="#DejaVuSans-74"/>
      <use xlink:href="#DejaVuSans-65" transform="translate(39.208984 0)"/>
      <use xlink:href="#DejaVuSans-73" transform="translate(100.732422 0)"/>
      <use xlink:href="#DejaVuSans-74" transform="translate(152.832031 0)"/>
      <use xlink:href="#DejaVuSans-5f" transform="translate(192.041016 0)"/>
      <use xlink:href="#DejaVuSans-62" transform="translate(242.041016 0)"/>
      <use xlink:href="#DejaVuSans-61" transform="translate(305.517578 0)"/>
      <use xlink:href="#DejaVuSans-6c" transform="translate(366.796875 0)"/>
      <use xlink:href="#DejaVuSans-61" transform="translate(394.580078 0)"/>
      <use xlink:href="#DejaVuSans-6e" transform="translate(455.859375 0)"/>
      <use xlink:href="#DejaVuSans-63" transform="translate(519.238281 0)"/>
      <use xlink:href="#DejaVuSans-65" transform="translate(574.21875 0)"/>
      <use xlink:href="#DejaVuSans-64" transform="translate(635.742188 0)"/>
      <use xlink:href="#DejaVuSans-5f" transform="translate(699.21875 0)"/>
      <use xlink:href="#DejaVuSans-61" transform="translate(749.21875 0)"/>
      <use xlink:href="#DejaVuSans-63" transform="translate(810.498047 0)"/>
      <use xlink:href="#DejaVuSans-63" transform="translate(865.478516 0)"/>
      <use xlink:href="#DejaVuSans-75" transform="translate(920.458984 0)"/>
      <use xlink:href="#DejaVuSans-72" transform="translate(983.837891 0)"/>
      <use xlink:href="#DejaVuSans-61" transform="translate(1024.951172 0)"/>
      <use xlink:href="#DejaVuSans-63" transform="translate(1086.230469 0)"/>
      <use xlink:href="#DejaVuSans-79" transform="translate(1141.210938 0)"/>
     </g>
    </g>
   </g>
   <g id="line2d_43">
    <path d="M 57.171257 438.167734 
L 58.799503 441.343089 
L 60.427749 430.40539 
L 62.055995 456.571755 
L 63.684242 451.510464 
L 65.312488 452.480827 
L 66.940734 467.181867 
L 68.568981 473.434657 
L 70.197227 477.456455 
L 71.825473 474.115599 
L 73.453719 459.541157 
L 75.081966 461.996691 
L 76.710212 445.884424 
L 78.338458 448.085748 
L 79.966705 448.720693 
L 81.594951 437.802621 
L 83.223197 441.465886 
L 84.851443 429.178841 
L 86.47969 423.398595 
L 88.107936 419.33815 
L 89.736182 420.233752 
L 91.364429 427.059038 
L 92.992675 419.646974 
L 94.620921 414.481214 
L 96.249167 411.330004 
L 97.877414 407.541794 
L 99.50566 413.572673 
L 101.133906 417.097358 
L 102.762152 422.87507 
L 104.390399 422.79347 
L 106.018645 417.760906 
L 107.646891 415.530422 
L 109.275138 423.533552 
L 110.903384 423.179115 
L 112.53163 428.646316 
L 114.159876 425.13083 
L 115.788123 431.92835 
L 117.416369 430.271579 
L 119.044615 436.802894 
L 120.672862 428.82999 
L 122.301108 429.567641 
L 123.929354 431.767173 
L 125.5576 437.531754 
L 127.185847 420.097276 
L 128.814093 417.692874 
L 130.442339 415.949759 
L 132.070586 416.607435 
L 133.698832 406.657702 
L 136.955324 398.238384 
L 138.583571 395.744535 
L 140.211817 393.947123 
L 141.840063 390.657945 
L 143.468309 385.694888 
L 145.096556 386.023578 
L 146.724802 386.108424 
L 148.353048 385.095208 
L 149.981295 385.574857 
L 151.609541 384.835051 
L 153.237787 385.358391 
L 154.866033 389.232386 
L 156.49428 388.498448 
L 158.122526 391.313103 
L 159.750772 388.496543 
L 161.379019 385.046898 
L 163.007265 388.14339 
L 164.635511 385.239134 
L 166.263757 376.943482 
L 167.892004 371.53833 
L 169.52025 364.03327 
L 171.148496 365.239594 
L 172.776743 362.523814 
L 176.033235 355.173097 
L 177.661481 354.067219 
L 179.289728 352.523044 
L 180.917974 351.966972 
L 182.54622 353.481386 
L 184.174466 356.504445 
L 185.802713 355.419325 
L 187.430959 355.183514 
L 189.059205 354.75792 
L 190.687452 351.7691 
L 192.315698 345.262663 
L 193.943944 342.01711 
L 195.57219 338.3672 
L 197.200437 326.121878 
L 198.828683 321.417793 
L 202.085176 307.504406 
L 203.713422 303.351274 
L 205.341668 300.320641 
L 206.969914 299.821554 
L 208.598161 296.039833 
L 210.226407 293.688378 
L 211.854653 293.509559 
L 213.482899 291.195585 
L 215.111146 294.045696 
L 218.367638 302.626935 
L 219.995885 306.014238 
L 221.624131 305.537866 
L 223.252377 307.877646 
L 224.880623 309.920305 
L 226.50887 312.554247 
L 228.137116 315.611554 
L 229.765362 319.621391 
L 231.393609 323.931782 
L 233.021855 332.20741 
L 234.650101 337.956673 
L 236.278347 340.051145 
L 237.906594 341.320922 
L 239.53484 347.16628 
L 241.163086 347.167203 
L 242.791333 346.306401 
L 244.419579 350.023583 
L 246.047825 347.571642 
L 249.304318 353.864384 
L 252.56081 364.102532 
L 254.189056 368.264689 
L 255.817303 375.56152 
L 257.445549 381.290367 
L 259.073795 385.428284 
L 260.702042 390.655486 
L 262.330288 386.9706 
L 263.958534 389.660821 
L 265.58678 386.510915 
L 267.215027 384.61254 
L 268.843273 382.264709 
L 270.471519 382.016749 
L 272.099766 378.194049 
L 273.728012 374.968313 
L 275.356258 373.039897 
L 276.984504 370.31165 
L 278.612751 362.906602 
L 280.240997 363.875326 
L 281.869243 367.123862 
L 283.49749 366.505761 
L 285.125736 363.543003 
L 286.753982 365.785959 
L 288.382228 372.993975 
L 290.010475 379.486159 
L 291.638721 386.794942 
L 293.266967 385.399031 
L 294.895213 390.005475 
L 296.52346 392.996367 
L 298.151706 396.699209 
L 299.779952 399.957833 
L 299.779952 399.957833 
" clip-path="url(#p9cf8fe1238)" style="fill: none; stroke: #1f77b4; stroke-width: 1.5; stroke-linecap: square"/>
   </g>
   <g id="patch_13">
    <path d="M 45.040822 486.769498 
L 45.040822 281.882542 
" style="fill: none; stroke: #000000; stroke-width: 0.8; stroke-linejoin: miter; stroke-linecap: square"/>
   </g>
   <g id="patch_14">
    <path d="M 311.910387 486.769498 
L 311.910387 281.882542 
" style="fill: none; stroke: #000000; stroke-width: 0.8; stroke-linejoin: miter; stroke-linecap: square"/>
   </g>
   <g id="patch_15">
    <path d="M 45.040822 486.769498 
L 311.910387 486.769498 
" style="fill: none; stroke: #000000; stroke-width: 0.8; stroke-linejoin: miter; stroke-linecap: square"/>
   </g>
   <g id="patch_16">
    <path d="M 45.040822 281.882542 
L 311.910387 281.882542 
" style="fill: none; stroke: #000000; stroke-width: 0.8; stroke-linejoin: miter; stroke-linecap: square"/>
   </g>
   <g id="text_49">
    <!-- loss_gain=-3.0_3.0 -->
    <g transform="translate(139.032404 279.882542) scale(0.0833 -0.0833)">
     <use xlink:href="#DejaVuSans-6c"/>
     <use xlink:href="#DejaVuSans-6f" transform="translate(27.783203 0)"/>
     <use xlink:href="#DejaVuSans-73" transform="translate(88.964844 0)"/>
     <use xlink:href="#DejaVuSans-73" transform="translate(141.064453 0)"/>
     <use xlink:href="#DejaVuSans-5f" transform="translate(193.164062 0)"/>
     <use xlink:href="#DejaVuSans-67" transform="translate(243.164062 0)"/>
     <use xlink:href="#DejaVuSans-61" transform="translate(306.640625 0)"/>
     <use xlink:href="#DejaVuSans-69" transform="translate(367.919922 0)"/>
     <use xlink:href="#DejaVuSans-6e" transform="translate(395.703125 0)"/>
     <use xlink:href="#DejaVuSans-3d" transform="translate(459.082031 0)"/>
     <use xlink:href="#DejaVuSans-2d" transform="translate(542.871094 0)"/>
     <use xlink:href="#DejaVuSans-33" transform="translate(578.955078 0)"/>
     <use xlink:href="#DejaVuSans-2e" transform="translate(642.578125 0)"/>
     <use xlink:href="#DejaVuSans-30" transform="translate(674.365234 0)"/>
     <use xlink:href="#DejaVuSans-5f" transform="translate(737.988281 0)"/>
     <use xlink:href="#DejaVuSans-33" transform="translate(787.988281 0)"/>
     <use xlink:href="#DejaVuSans-2e" transform="translate(851.611328 0)"/>
     <use xlink:href="#DejaVuSans-30" transform="translate(883.398438 0)"/>
    </g>
   </g>
  </g>
  <g id="axes_4">
   <g id="patch_17">
    <path d="M 391.971257 486.769498 
L 658.840822 486.769498 
L 658.840822 281.882542 
L 391.971257 281.882542 
z
" style="fill: #ffffff"/>
   </g>
   <g id="matplotlib.axis_7">
    <g id="xtick_22">
     <g id="line2d_44">
      <g>
       <use xlink:href="#m2273ec937f" x="404.101691" y="486.769498" style="stroke: #000000; stroke-width: 0.8"/>
      </g>
     </g>
     <g id="text_50">
      <!-- −1.5 -->
      <g transform="translate(393.9879 500.098997) scale(0.0833 -0.0833)">
       <use xlink:href="#DejaVuSans-2212"/>
       <use xlink:href="#DejaVuSans-31" transform="translate(83.789062 0)"/>
       <use xlink:href="#DejaVuSans-2e" transform="translate(147.412109 0)"/>
       <use xlink:href="#DejaVuSans-35" transform="translate(179.199219 0)"/>
      </g>
     </g>
    </g>
    <g id="xtick_23">
     <g id="line2d_45">
      <g>
       <use xlink:href="#m2273ec937f" x="444.807848" y="486.769498" style="stroke: #000000; stroke-width: 0.8"/>
      </g>
     </g>
     <g id="text_51">
      <!-- −1.0 -->
      <g transform="translate(434.694057 500.098997) scale(0.0833 -0.0833)">
       <use xlink:href="#DejaVuSans-2212"/>
       <use xlink:href="#DejaVuSans-31" transform="translate(83.789062 0)"/>
       <use xlink:href="#DejaVuSans-2e" transform="translate(147.412109 0)"/>
       <use xlink:href="#DejaVuSans-30" transform="translate(179.199219 0)"/>
      </g>
     </g>
    </g>
    <g id="xtick_24">
     <g id="line2d_46">
      <g>
       <use xlink:href="#m2273ec937f" x="485.514005" y="486.769498" style="stroke: #000000; stroke-width: 0.8"/>
      </g>
     </g>
     <g id="text_52">
      <!-- −0.5 -->
      <g transform="translate(475.400214 500.098997) scale(0.0833 -0.0833)">
       <use xlink:href="#DejaVuSans-2212"/>
       <use xlink:href="#DejaVuSans-30" transform="translate(83.789062 0)"/>
       <use xlink:href="#DejaVuSans-2e" transform="translate(147.412109 0)"/>
       <use xlink:href="#DejaVuSans-35" transform="translate(179.199219 0)"/>
      </g>
     </g>
    </g>
    <g id="xtick_25">
     <g id="line2d_47">
      <g>
       <use xlink:href="#m2273ec937f" x="526.220162" y="486.769498" style="stroke: #000000; stroke-width: 0.8"/>
      </g>
     </g>
     <g id="text_53">
      <!-- 0.0 -->
      <g transform="translate(519.596511 500.098997) scale(0.0833 -0.0833)">
       <use xlink:href="#DejaVuSans-30"/>
       <use xlink:href="#DejaVuSans-2e" transform="translate(63.623047 0)"/>
       <use xlink:href="#DejaVuSans-30" transform="translate(95.410156 0)"/>
      </g>
     </g>
    </g>
    <g id="xtick_26">
     <g id="line2d_48">
      <g>
       <use xlink:href="#m2273ec937f" x="566.926319" y="486.769498" style="stroke: #000000; stroke-width: 0.8"/>
      </g>
     </g>
     <g id="text_54">
      <!-- 0.5 -->
      <g transform="translate(560.302668 500.098997) scale(0.0833 -0.0833)">
       <use xlink:href="#DejaVuSans-30"/>
       <use xlink:href="#DejaVuSans-2e" transform="translate(63.623047 0)"/>
       <use xlink:href="#DejaVuSans-35" transform="translate(95.410156 0)"/>
      </g>
     </g>
    </g>
    <g id="xtick_27">
     <g id="line2d_49">
      <g>
       <use xlink:href="#m2273ec937f" x="607.632476" y="486.769498" style="stroke: #000000; stroke-width: 0.8"/>
      </g>
     </g>
     <g id="text_55">
      <!-- 1.0 -->
      <g transform="translate(601.008825 500.098997) scale(0.0833 -0.0833)">
       <use xlink:href="#DejaVuSans-31"/>
       <use xlink:href="#DejaVuSans-2e" transform="translate(63.623047 0)"/>
       <use xlink:href="#DejaVuSans-30" transform="translate(95.410156 0)"/>
      </g>
     </g>
    </g>
    <g id="xtick_28">
     <g id="line2d_50">
      <g>
       <use xlink:href="#m2273ec937f" x="648.338633" y="486.769498" style="stroke: #000000; stroke-width: 0.8"/>
      </g>
     </g>
     <g id="text_56">
      <!-- 1.5 -->
      <g transform="translate(641.714982 500.098997) scale(0.0833 -0.0833)">
       <use xlink:href="#DejaVuSans-31"/>
       <use xlink:href="#DejaVuSans-2e" transform="translate(63.623047 0)"/>
       <use xlink:href="#DejaVuSans-35" transform="translate(95.410156 0)"/>
      </g>
     </g>
    </g>
    <g id="text_57">
     <!-- time -->
     <g transform="translate(515.996393 512.160875) scale(0.0833 -0.0833)">
      <use xlink:href="#DejaVuSans-74"/>
      <use xlink:href="#DejaVuSans-69" transform="translate(39.208984 0)"/>
      <use xlink:href="#DejaVuSans-6d" transform="translate(66.992188 0)"/>
      <use xlink:href="#DejaVuSans-65" transform="translate(164.404297 0)"/>
     </g>
    </g>
   </g>
   <g id="matplotlib.axis_8">
    <g id="ytick_20">
     <g id="line2d_51">
      <g>
       <use xlink:href="#m6f16a4d5b7" x="391.971257" y="448.269307" style="stroke: #000000; stroke-width: 0.8"/>
      </g>
     </g>
     <g id="text_58">
      <!-- 0.5 -->
      <g transform="translate(371.723954 451.434056) scale(0.0833 -0.0833)">
       <use xlink:href="#DejaVuSans-30"/>
       <use xlink:href="#DejaVuSans-2e" transform="translate(63.623047 0)"/>
       <use xlink:href="#DejaVuSans-35" transform="translate(95.410156 0)"/>
      </g>
     </g>
    </g>
    <g id="ytick_21">
     <g id="line2d_52">
      <g>
       <use xlink:href="#m6f16a4d5b7" x="391.971257" y="409.187549" style="stroke: #000000; stroke-width: 0.8"/>
      </g>
     </g>
     <g id="text_59">
      <!-- 0.6 -->
      <g transform="translate(371.723954 412.352299) scale(0.0833 -0.0833)">
       <use xlink:href="#DejaVuSans-30"/>
       <use xlink:href="#DejaVuSans-2e" transform="translate(63.623047 0)"/>
       <use xlink:href="#DejaVuSans-36" transform="translate(95.410156 0)"/>
      </g>
     </g>
    </g>
    <g id="ytick_22">
     <g id="line2d_53">
      <g>
       <use xlink:href="#m6f16a4d5b7" x="391.971257" y="370.105792" style="stroke: #000000; stroke-width: 0.8"/>
      </g>
     </g>
     <g id="text_60">
      <!-- 0.7 -->
      <g transform="translate(371.723954 373.270541) scale(0.0833 -0.0833)">
       <use xlink:href="#DejaVuSans-30"/>
       <use xlink:href="#DejaVuSans-2e" transform="translate(63.623047 0)"/>
       <use xlink:href="#DejaVuSans-37" transform="translate(95.410156 0)"/>
      </g>
     </g>
    </g>
    <g id="ytick_23">
     <g id="line2d_54">
      <g>
       <use xlink:href="#m6f16a4d5b7" x="391.971257" y="331.024035" style="stroke: #000000; stroke-width: 0.8"/>
      </g>
     </g>
     <g id="text_61">
      <!-- 0.8 -->
      <g transform="translate(371.723954 334.188784) scale(0.0833 -0.0833)">
       <use xlink:href="#DejaVuSans-30"/>
       <use xlink:href="#DejaVuSans-2e" transform="translate(63.623047 0)"/>
       <use xlink:href="#DejaVuSans-38" transform="translate(95.410156 0)"/>
      </g>
     </g>
    </g>
    <g id="ytick_24">
     <g id="line2d_55">
      <g>
       <use xlink:href="#m6f16a4d5b7" x="391.971257" y="291.942278" style="stroke: #000000; stroke-width: 0.8"/>
      </g>
     </g>
     <g id="text_62">
      <!-- 0.9 -->
      <g transform="translate(371.723954 295.107027) scale(0.0833 -0.0833)">
       <use xlink:href="#DejaVuSans-30"/>
       <use xlink:href="#DejaVuSans-2e" transform="translate(63.623047 0)"/>
       <use xlink:href="#DejaVuSans-39" transform="translate(95.410156 0)"/>
      </g>
     </g>
    </g>
    <g id="text_63">
     <!-- test_balanced_accuracy -->
     <g transform="translate(365.759896 434.323591) rotate(-90) scale(0.0833 -0.0833)">
      <use xlink:href="#DejaVuSans-74"/>
      <use xlink:href="#DejaVuSans-65" transform="translate(39.208984 0)"/>
      <use xlink:href="#DejaVuSans-73" transform="translate(100.732422 0)"/>
      <use xlink:href="#DejaVuSans-74" transform="translate(152.832031 0)"/>
      <use xlink:href="#DejaVuSans-5f" transform="translate(192.041016 0)"/>
      <use xlink:href="#DejaVuSans-62" transform="translate(242.041016 0)"/>
      <use xlink:href="#DejaVuSans-61" transform="translate(305.517578 0)"/>
      <use xlink:href="#DejaVuSans-6c" transform="translate(366.796875 0)"/>
      <use xlink:href="#DejaVuSans-61" transform="translate(394.580078 0)"/>
      <use xlink:href="#DejaVuSans-6e" transform="translate(455.859375 0)"/>
      <use xlink:href="#DejaVuSans-63" transform="translate(519.238281 0)"/>
      <use xlink:href="#DejaVuSans-65" transform="translate(574.21875 0)"/>
      <use xlink:href="#DejaVuSans-64" transform="translate(635.742188 0)"/>
      <use xlink:href="#DejaVuSans-5f" transform="translate(699.21875 0)"/>
      <use xlink:href="#DejaVuSans-61" transform="translate(749.21875 0)"/>
      <use xlink:href="#DejaVuSans-63" transform="translate(810.498047 0)"/>
      <use xlink:href="#DejaVuSans-63" transform="translate(865.478516 0)"/>
      <use xlink:href="#DejaVuSans-75" transform="translate(920.458984 0)"/>
      <use xlink:href="#DejaVuSans-72" transform="translate(983.837891 0)"/>
      <use xlink:href="#DejaVuSans-61" transform="translate(1024.951172 0)"/>
      <use xlink:href="#DejaVuSans-63" transform="translate(1086.230469 0)"/>
      <use xlink:href="#DejaVuSans-79" transform="translate(1141.210938 0)"/>
     </g>
    </g>
   </g>
   <g id="line2d_56">
    <path d="M 404.101691 466.226937 
L 405.729938 445.399814 
L 407.358184 460.355044 
L 408.98643 461.407363 
L 410.614677 445.975494 
L 412.242923 438.905262 
L 413.871169 439.466697 
L 415.499415 449.084453 
L 417.127662 439.014636 
L 418.755908 435.173351 
L 420.384154 448.388757 
L 422.012401 449.995364 
L 423.640647 443.192826 
L 425.268893 440.80318 
L 426.897139 451.059991 
L 428.525386 463.886093 
L 430.153632 434.228892 
L 431.781878 437.519004 
L 433.410124 426.310306 
L 435.038371 432.262764 
L 436.666617 436.628649 
L 438.294863 437.10156 
L 439.92311 441.644838 
L 441.551356 434.682479 
L 443.179602 453.165007 
L 444.807848 457.745699 
L 446.436095 463.313702 
L 448.064341 458.339206 
L 449.692587 444.621215 
L 451.320834 442.37221 
L 452.94908 450.927376 
L 454.577326 454.899218 
L 456.205572 440.191723 
L 457.833819 467.347993 
L 459.462065 477.456455 
L 461.090311 474.378531 
L 462.718558 457.925428 
L 464.346804 453.420653 
L 465.97505 459.010927 
L 467.603296 454.156696 
L 469.231543 442.66316 
L 470.859789 428.513033 
L 472.488035 424.621587 
L 474.116281 415.339488 
L 475.744528 409.695938 
L 477.372774 409.092043 
L 479.00102 405.897065 
L 480.629267 412.16256 
L 482.257513 414.236597 
L 483.885759 412.373467 
L 485.514005 410.002948 
L 488.770498 396.465328 
L 490.398744 398.953528 
L 493.655237 391.293034 
L 495.283483 386.818006 
L 496.911729 382.884251 
L 500.168222 369.935224 
L 501.796468 370.471992 
L 503.424714 370.269295 
L 505.052961 365.525125 
L 506.681207 365.981035 
L 508.309453 356.826394 
L 509.9377 350.578506 
L 511.565946 345.376541 
L 513.194192 350.621469 
L 514.822438 345.773599 
L 516.450685 345.835967 
L 518.078931 347.07512 
L 519.707177 347.703211 
L 521.335424 351.893698 
L 522.96367 352.248795 
L 524.591916 353.253203 
L 526.220162 350.100415 
L 527.848409 349.717018 
L 529.476655 355.399733 
L 531.104901 356.814909 
L 532.733148 353.94191 
L 534.361394 353.901275 
L 535.98964 351.344803 
L 540.874379 336.920906 
L 542.502625 329.511725 
L 544.130871 321.315095 
L 545.759118 310.986123 
L 547.387364 304.382297 
L 549.01561 299.811062 
L 550.643857 293.35876 
L 552.272103 291.195585 
L 553.900349 291.471791 
L 555.528595 296.794511 
L 557.156842 297.991346 
L 558.785088 295.823077 
L 560.413334 296.365446 
L 562.041581 298.914493 
L 563.669827 299.253306 
L 566.926319 308.732945 
L 568.554566 316.878193 
L 570.182812 323.988603 
L 571.811058 334.206722 
L 573.439305 342.032783 
L 575.067551 345.135312 
L 576.695797 344.960705 
L 578.324043 347.552316 
L 579.95229 350.358849 
L 581.580536 355.45272 
L 583.208782 354.676352 
L 584.837028 356.322799 
L 586.465275 356.414354 
L 588.093521 358.276486 
L 591.350014 364.446977 
L 592.97826 362.852965 
L 594.606506 372.051704 
L 597.862999 383.117143 
L 599.491245 389.179849 
L 601.119491 388.401903 
L 602.747738 392.465981 
L 604.375984 390.023256 
L 606.00423 392.611213 
L 607.632476 393.413117 
L 609.260723 391.9025 
L 610.888969 393.732421 
L 612.517215 391.747552 
L 614.145462 392.808632 
L 615.773708 391.728985 
L 619.0302 385.941762 
L 620.658447 387.35071 
L 622.286693 390.477876 
L 623.914939 393.108216 
L 625.543185 393.715809 
L 627.171432 390.637855 
L 628.799678 388.203139 
L 630.427924 386.41348 
L 632.056171 389.998048 
L 633.684417 391.342335 
L 635.312663 393.029054 
L 636.940909 393.814696 
L 638.569156 396.290765 
L 640.197402 396.794067 
L 641.825648 403.827216 
L 643.453895 396.088608 
L 645.082141 400.1612 
L 646.710387 395.353073 
L 646.710387 395.353073 
" clip-path="url(#p256dff4da4)" style="fill: none; stroke: #1f77b4; stroke-width: 1.5; stroke-linecap: square"/>
   </g>
   <g id="patch_18">
    <path d="M 391.971257 486.769498 
L 391.971257 281.882542 
" style="fill: none; stroke: #000000; stroke-width: 0.8; stroke-linejoin: miter; stroke-linecap: square"/>
   </g>
   <g id="patch_19">
    <path d="M 658.840822 486.769498 
L 658.840822 281.882542 
" style="fill: none; stroke: #000000; stroke-width: 0.8; stroke-linejoin: miter; stroke-linecap: square"/>
   </g>
   <g id="patch_20">
    <path d="M 391.971257 486.769498 
L 658.840822 486.769498 
" style="fill: none; stroke: #000000; stroke-width: 0.8; stroke-linejoin: miter; stroke-linecap: square"/>
   </g>
   <g id="patch_21">
    <path d="M 391.971257 281.882542 
L 658.840822 281.882542 
" style="fill: none; stroke: #000000; stroke-width: 0.8; stroke-linejoin: miter; stroke-linecap: square"/>
   </g>
   <g id="text_64">
    <!-- loss_gain=-3.0_2.0 -->
    <g transform="translate(485.962838 279.882542) scale(0.0833 -0.0833)">
     <use xlink:href="#DejaVuSans-6c"/>
     <use xlink:href="#DejaVuSans-6f" transform="translate(27.783203 0)"/>
     <use xlink:href="#DejaVuSans-73" transform="translate(88.964844 0)"/>
     <use xlink:href="#DejaVuSans-73" transform="translate(141.064453 0)"/>
     <use xlink:href="#DejaVuSans-5f" transform="translate(193.164062 0)"/>
     <use xlink:href="#DejaVuSans-67" transform="translate(243.164062 0)"/>
     <use xlink:href="#DejaVuSans-61" transform="translate(306.640625 0)"/>
     <use xlink:href="#DejaVuSans-69" transform="translate(367.919922 0)"/>
     <use xlink:href="#DejaVuSans-6e" transform="translate(395.703125 0)"/>
     <use xlink:href="#DejaVuSans-3d" transform="translate(459.082031 0)"/>
     <use xlink:href="#DejaVuSans-2d" transform="translate(542.871094 0)"/>
     <use xlink:href="#DejaVuSans-33" transform="translate(578.955078 0)"/>
     <use xlink:href="#DejaVuSans-2e" transform="translate(642.578125 0)"/>
     <use xlink:href="#DejaVuSans-30" transform="translate(674.365234 0)"/>
     <use xlink:href="#DejaVuSans-5f" transform="translate(737.988281 0)"/>
     <use xlink:href="#DejaVuSans-32" transform="translate(787.988281 0)"/>
     <use xlink:href="#DejaVuSans-2e" transform="translate(851.611328 0)"/>
     <use xlink:href="#DejaVuSans-30" transform="translate(883.398438 0)"/>
    </g>
   </g>
  </g>
 </g>
 <defs>
  <clipPath id="p7d91330ef9">
   <rect x="45.040822" y="15.529498" width="266.869565" height="204.886957"/>
  </clipPath>
  <clipPath id="p9e6e6370f0">
   <rect x="391.971257" y="15.529498" width="266.869565" height="204.886957"/>
  </clipPath>
  <clipPath id="p9cf8fe1238">
   <rect x="45.040822" y="281.882542" width="266.869565" height="204.886957"/>
  </clipPath>
  <clipPath id="p256dff4da4">
   <rect x="391.971257" y="281.882542" width="266.869565" height="204.886957"/>
  </clipPath>
 </defs>
</svg>
